<mxfile host="65bd71144e">
    <diagram name="Page-1" id="IxhOv_pnVuLYqrjwdqJs">
        <mxGraphModel dx="761" dy="548" grid="1" gridSize="10" guides="1" tooltips="1" connect="1" arrows="1" fold="1" page="1" pageScale="1" pageWidth="827" pageHeight="1169" math="0" shadow="0">
            <root>
                <mxCell id="0"/>
                <mxCell id="1" parent="0"/>
                <mxCell id="utq9JPTT0G6UeFqzBfEX-5" style="rounded=0;orthogonalLoop=1;jettySize=auto;html=1;endArrow=blockThin;endFill=1;fontSize=10;" parent="1" source="utq9JPTT0G6UeFqzBfEX-3" target="utq9JPTT0G6UeFqzBfEX-4" edge="1">
                    <mxGeometry relative="1" as="geometry">
                        <mxPoint x="110" y="160" as="sourcePoint"/>
                    </mxGeometry>
                </mxCell>
                <mxCell id="utq9JPTT0G6UeFqzBfEX-12" value="Manure" style="edgeLabel;html=1;align=center;verticalAlign=middle;resizable=0;points=[];fontSize=10;" parent="utq9JPTT0G6UeFqzBfEX-5" vertex="1" connectable="0">
                    <mxGeometry x="-0.0308" y="-1" relative="1" as="geometry">
                        <mxPoint as="offset"/>
                    </mxGeometry>
                </mxCell>
                <mxCell id="utq9JPTT0G6UeFqzBfEX-3" value="" style="ellipse;whiteSpace=wrap;html=1;aspect=fixed;fontSize=10;" parent="1" vertex="1">
                    <mxGeometry x="90" y="150" width="20" height="20" as="geometry"/>
                </mxCell>
                <mxCell id="utq9JPTT0G6UeFqzBfEX-15" value="Biogas" style="edgeStyle=none;rounded=0;orthogonalLoop=1;jettySize=auto;html=1;endArrow=blockThin;endFill=1;fontSize=10;" parent="1" source="utq9JPTT0G6UeFqzBfEX-4" target="utq9JPTT0G6UeFqzBfEX-11" edge="1">
                    <mxGeometry relative="1" as="geometry"/>
                </mxCell>
                <mxCell id="utq9JPTT0G6UeFqzBfEX-16" style="edgeStyle=none;rounded=0;orthogonalLoop=1;jettySize=auto;html=1;endArrow=blockThin;endFill=1;fontSize=10;" parent="1" source="utq9JPTT0G6UeFqzBfEX-4" target="utq9JPTT0G6UeFqzBfEX-14" edge="1">
                    <mxGeometry relative="1" as="geometry"/>
                </mxCell>
                <mxCell id="utq9JPTT0G6UeFqzBfEX-17" value="Biogas" style="edgeLabel;html=1;align=center;verticalAlign=middle;resizable=0;points=[];fontSize=10;" parent="utq9JPTT0G6UeFqzBfEX-16" vertex="1" connectable="0">
                    <mxGeometry x="0.112" relative="1" as="geometry">
                        <mxPoint as="offset"/>
                    </mxGeometry>
                </mxCell>
                <mxCell id="utq9JPTT0G6UeFqzBfEX-21" style="edgeStyle=orthogonalEdgeStyle;rounded=0;orthogonalLoop=1;jettySize=auto;html=1;endArrow=blockThin;endFill=1;fontSize=10;" parent="1" source="utq9JPTT0G6UeFqzBfEX-4" target="utq9JPTT0G6UeFqzBfEX-3" edge="1">
                    <mxGeometry relative="1" as="geometry">
                        <mxPoint x="99.99999999999989" y="230" as="targetPoint"/>
                        <Array as="points">
                            <mxPoint x="250" y="200"/>
                            <mxPoint x="100" y="200"/>
                        </Array>
                    </mxGeometry>
                </mxCell>
                <mxCell id="utq9JPTT0G6UeFqzBfEX-22" value="Fertilizer" style="edgeLabel;html=1;align=center;verticalAlign=middle;resizable=0;points=[];fontSize=10;" parent="utq9JPTT0G6UeFqzBfEX-21" vertex="1" connectable="0">
                    <mxGeometry x="0.0835" y="1" relative="1" as="geometry">
                        <mxPoint as="offset"/>
                    </mxGeometry>
                </mxCell>
                <mxCell id="utq9JPTT0G6UeFqzBfEX-4" value="" style="ellipse;whiteSpace=wrap;html=1;aspect=fixed;fontSize=10;" parent="1" vertex="1">
                    <mxGeometry x="240" y="150" width="20" height="20" as="geometry"/>
                </mxCell>
                <mxCell id="utq9JPTT0G6UeFqzBfEX-8" value="Feedstock sites" style="text;html=1;align=center;verticalAlign=middle;resizable=0;points=[];autosize=1;strokeColor=none;fillColor=none;fontSize=10;" parent="1" vertex="1">
                    <mxGeometry x="55" y="120" width="90" height="30" as="geometry"/>
                </mxCell>
                <mxCell id="utq9JPTT0G6UeFqzBfEX-10" value="Processing plants" style="text;html=1;align=center;verticalAlign=middle;resizable=0;points=[];autosize=1;strokeColor=none;fillColor=none;fontSize=10;" parent="1" vertex="1">
                    <mxGeometry x="200" y="120" width="100" height="30" as="geometry"/>
                </mxCell>
                <mxCell id="utq9JPTT0G6UeFqzBfEX-24" style="edgeStyle=orthogonalEdgeStyle;rounded=0;orthogonalLoop=1;jettySize=auto;html=1;endArrow=blockThin;endFill=1;fontSize=10;" parent="1" source="utq9JPTT0G6UeFqzBfEX-11" target="utq9JPTT0G6UeFqzBfEX-19" edge="1">
                    <mxGeometry relative="1" as="geometry"/>
                </mxCell>
                <mxCell id="utq9JPTT0G6UeFqzBfEX-11" value="" style="ellipse;whiteSpace=wrap;html=1;aspect=fixed;fontSize=10;" parent="1" vertex="1">
                    <mxGeometry x="420" y="100" width="20" height="20" as="geometry"/>
                </mxCell>
                <mxCell id="utq9JPTT0G6UeFqzBfEX-23" style="edgeStyle=orthogonalEdgeStyle;rounded=0;orthogonalLoop=1;jettySize=auto;html=1;endArrow=blockThin;endFill=1;fontSize=10;" parent="1" source="utq9JPTT0G6UeFqzBfEX-14" target="utq9JPTT0G6UeFqzBfEX-19" edge="1">
                    <mxGeometry relative="1" as="geometry"/>
                </mxCell>
                <mxCell id="utq9JPTT0G6UeFqzBfEX-14" value="" style="ellipse;whiteSpace=wrap;html=1;aspect=fixed;fontSize=10;" parent="1" vertex="1">
                    <mxGeometry x="420" y="200" width="20" height="20" as="geometry"/>
                </mxCell>
                <mxCell id="utq9JPTT0G6UeFqzBfEX-18" value="CHP plants" style="text;html=1;align=center;verticalAlign=middle;resizable=0;points=[];autosize=1;strokeColor=none;fillColor=none;fontSize=10;" parent="1" vertex="1">
                    <mxGeometry x="395" y="70" width="70" height="30" as="geometry"/>
                </mxCell>
                <mxCell id="utq9JPTT0G6UeFqzBfEX-19" value="" style="ellipse;whiteSpace=wrap;html=1;aspect=fixed;fontSize=10;" parent="1" vertex="1">
                    <mxGeometry x="520" y="150" width="20" height="20" as="geometry"/>
                </mxCell>
                <mxCell id="utq9JPTT0G6UeFqzBfEX-20" value="Upgrade to &lt;br style=&quot;font-size: 10px;&quot;&gt;biomethane" style="text;html=1;align=center;verticalAlign=middle;resizable=0;points=[];autosize=1;strokeColor=none;fillColor=none;fontSize=10;" parent="1" vertex="1">
                    <mxGeometry x="390" y="160" width="80" height="40" as="geometry"/>
                </mxCell>
                <mxCell id="utq9JPTT0G6UeFqzBfEX-25" value="Consumers" style="text;html=1;align=center;verticalAlign=middle;resizable=0;points=[];autosize=1;strokeColor=none;fillColor=none;fontSize=10;" parent="1" vertex="1">
                    <mxGeometry x="533" y="145" width="70" height="30" as="geometry"/>
                </mxCell>
                <mxCell id="2" style="rounded=0;orthogonalLoop=1;jettySize=auto;html=1;endArrow=blockThin;endFill=1;fontSize=12;strokeWidth=1;" parent="1" source="4" target="10" edge="1">
                    <mxGeometry relative="1" as="geometry">
                        <mxPoint x="110" y="390" as="sourcePoint"/>
                    </mxGeometry>
                </mxCell>
                <mxCell id="3" value="Manure" style="edgeLabel;html=1;align=center;verticalAlign=middle;resizable=0;points=[];fontSize=12;" parent="2" vertex="1" connectable="0">
                    <mxGeometry x="-0.0308" y="-1" relative="1" as="geometry">
                        <mxPoint y="-1" as="offset"/>
                    </mxGeometry>
                </mxCell>
                <mxCell id="4" value="" style="ellipse;whiteSpace=wrap;html=1;aspect=fixed;fontSize=12;" parent="1" vertex="1">
                    <mxGeometry x="125" y="378.64" width="20" height="20" as="geometry"/>
                </mxCell>
                <mxCell id="8" style="edgeStyle=orthogonalEdgeStyle;rounded=0;orthogonalLoop=1;jettySize=auto;html=1;endArrow=blockThin;endFill=1;fontSize=12;strokeWidth=1;" parent="1" source="10" target="21" edge="1">
                    <mxGeometry relative="1" as="geometry">
                        <mxPoint x="109.87999999999988" y="458.64" as="targetPoint"/>
                        <Array as="points">
                            <mxPoint x="259.88" y="458.64"/>
                            <mxPoint x="259.88" y="458.64"/>
                        </Array>
                    </mxGeometry>
                </mxCell>
                <mxCell id="9" value="Digestate" style="edgeLabel;html=1;align=center;verticalAlign=middle;resizable=0;points=[];fontSize=12;" parent="8" vertex="1" connectable="0">
                    <mxGeometry x="0.0835" y="1" relative="1" as="geometry">
                        <mxPoint x="-1" y="-2" as="offset"/>
                    </mxGeometry>
                </mxCell>
                <mxCell id="50" style="edgeStyle=orthogonalEdgeStyle;html=1;strokeWidth=1;fontSize=12;endArrow=blockThin;endFill=1;rounded=1;" parent="1" source="10" target="30" edge="1">
                    <mxGeometry relative="1" as="geometry">
                        <mxPoint x="410" y="330" as="targetPoint"/>
                        <Array as="points">
                            <mxPoint x="330" y="389"/>
                            <mxPoint x="330" y="314"/>
                        </Array>
                    </mxGeometry>
                </mxCell>
                <mxCell id="51" style="edgeStyle=orthogonalEdgeStyle;rounded=1;html=1;strokeWidth=1;fontSize=12;endArrow=blockThin;endFill=1;" parent="1" source="10" target="16" edge="1">
                    <mxGeometry relative="1" as="geometry">
                        <Array as="points">
                            <mxPoint x="330" y="389"/>
                            <mxPoint x="330" y="469"/>
                        </Array>
                    </mxGeometry>
                </mxCell>
                <mxCell id="53" style="edgeStyle=orthogonalEdgeStyle;rounded=0;html=1;strokeWidth=1;fontSize=12;endArrow=blockThin;endFill=1;" parent="1" source="10" target="14" edge="1">
                    <mxGeometry relative="1" as="geometry"/>
                </mxCell>
                <mxCell id="54" value="Biogas" style="edgeLabel;html=1;align=center;verticalAlign=middle;resizable=0;points=[];fontSize=12;" parent="53" vertex="1" connectable="0">
                    <mxGeometry x="0.1564" relative="1" as="geometry">
                        <mxPoint x="-4" as="offset"/>
                    </mxGeometry>
                </mxCell>
                <mxCell id="10" value="" style="ellipse;whiteSpace=wrap;html=1;aspect=fixed;fontSize=12;" parent="1" vertex="1">
                    <mxGeometry x="249.87999999999997" y="378.64" width="20" height="20" as="geometry"/>
                </mxCell>
                <mxCell id="11" value="Feedstock sites" style="text;html=1;align=center;verticalAlign=middle;resizable=0;points=[];autosize=1;strokeColor=none;fillColor=none;fontSize=12;fontStyle=1" parent="1" vertex="1">
                    <mxGeometry x="80" y="350" width="110" height="30" as="geometry"/>
                </mxCell>
                <mxCell id="12" value="Digesters" style="text;html=1;align=center;verticalAlign=middle;resizable=0;points=[];autosize=1;strokeColor=none;fillColor=none;fontSize=12;fontStyle=1" parent="1" vertex="1">
                    <mxGeometry x="219.88000000000002" y="348.64" width="80" height="30" as="geometry"/>
                </mxCell>
                <mxCell id="13" style="edgeStyle=orthogonalEdgeStyle;rounded=0;orthogonalLoop=1;jettySize=auto;html=1;endArrow=blockThin;endFill=1;fontSize=12;strokeWidth=1;" parent="1" source="14" target="18" edge="1">
                    <mxGeometry relative="1" as="geometry"/>
                </mxCell>
                <mxCell id="14" value="" style="ellipse;whiteSpace=wrap;html=1;aspect=fixed;fontSize=12;" parent="1" vertex="1">
                    <mxGeometry x="400" y="378.64" width="20" height="20" as="geometry"/>
                </mxCell>
                <mxCell id="26" value="" style="edgeStyle=none;html=1;endArrow=blockThin;endFill=1;fontSize=12;strokeWidth=1;" parent="1" source="16" target="25" edge="1">
                    <mxGeometry relative="1" as="geometry"/>
                </mxCell>
                <mxCell id="59" value="Electricity" style="edgeLabel;html=1;align=center;verticalAlign=middle;resizable=0;points=[];fontSize=12;" parent="26" vertex="1" connectable="0">
                    <mxGeometry x="0.5133" relative="1" as="geometry">
                        <mxPoint x="-10" as="offset"/>
                    </mxGeometry>
                </mxCell>
                <mxCell id="28" style="edgeStyle=orthogonalEdgeStyle;html=1;endArrow=blockThin;endFill=1;fontSize=12;strokeWidth=1;rounded=1;" parent="1" source="16" target="18" edge="1">
                    <mxGeometry relative="1" as="geometry">
                        <mxPoint x="505" y="408.6400000000001" as="targetPoint"/>
                        <Array as="points">
                            <mxPoint x="410" y="438.64"/>
                            <mxPoint x="495" y="438.64"/>
                            <mxPoint x="495" y="388.64"/>
                        </Array>
                    </mxGeometry>
                </mxCell>
                <mxCell id="58" value="Heat" style="edgeLabel;html=1;align=center;verticalAlign=middle;resizable=0;points=[];fontSize=12;" parent="28" vertex="1" connectable="0">
                    <mxGeometry x="0.7074" y="1" relative="1" as="geometry">
                        <mxPoint as="offset"/>
                    </mxGeometry>
                </mxCell>
                <mxCell id="16" value="" style="ellipse;whiteSpace=wrap;html=1;aspect=fixed;fontSize=12;" parent="1" vertex="1">
                    <mxGeometry x="400" y="458.64" width="20" height="20" as="geometry"/>
                </mxCell>
                <mxCell id="17" value="CHP plants" style="text;html=1;align=center;verticalAlign=middle;resizable=0;points=[];autosize=1;strokeColor=none;fillColor=none;fontSize=12;fontStyle=1" parent="1" vertex="1">
                    <mxGeometry x="365" y="473.64" width="90" height="30" as="geometry"/>
                </mxCell>
                <mxCell id="18" value="" style="ellipse;whiteSpace=wrap;html=1;aspect=fixed;fontSize=12;" parent="1" vertex="1">
                    <mxGeometry x="560.29" y="378.64" width="20" height="20" as="geometry"/>
                </mxCell>
                <mxCell id="19" value="Biogas Upgrade" style="text;html=1;align=center;verticalAlign=middle;resizable=0;points=[];autosize=1;strokeColor=none;fillColor=none;fontSize=12;fontStyle=1" parent="1" vertex="1">
                    <mxGeometry x="350" y="278.64" width="120" height="30" as="geometry"/>
                </mxCell>
                <mxCell id="20" value="Electricity for local&amp;nbsp;&lt;br style=&quot;font-size: 12px;&quot;&gt;Consumption" style="text;html=1;align=left;verticalAlign=middle;resizable=0;points=[];autosize=1;strokeColor=none;fillColor=none;fontSize=12;fontStyle=1" parent="1" vertex="1">
                    <mxGeometry x="585.29" y="448.64" width="130" height="40" as="geometry"/>
                </mxCell>
                <mxCell id="21" value="" style="ellipse;whiteSpace=wrap;html=1;aspect=fixed;fontSize=12;" parent="1" vertex="1">
                    <mxGeometry x="249.87999999999997" y="458.64" width="20" height="20" as="geometry"/>
                </mxCell>
                <mxCell id="22" value="Digestate&lt;br style=&quot;font-size: 12px;&quot;&gt;Use" style="edgeLabel;html=1;align=center;verticalAlign=middle;resizable=0;points=[];fontSize=12;fontStyle=1" parent="1" vertex="1" connectable="0">
                    <mxGeometry x="260" y="504.2914285714285" as="geometry">
                        <mxPoint y="-4" as="offset"/>
                    </mxGeometry>
                </mxCell>
                <mxCell id="24" value="Boiler" style="text;html=1;align=center;verticalAlign=middle;resizable=0;points=[];autosize=1;strokeColor=none;fillColor=none;fontSize=12;fontStyle=1" parent="1" vertex="1">
                    <mxGeometry x="380" y="353.64" width="60" height="30" as="geometry"/>
                </mxCell>
                <mxCell id="25" value="" style="ellipse;whiteSpace=wrap;html=1;aspect=fixed;fontSize=12;" parent="1" vertex="1">
                    <mxGeometry x="560.29" y="458.64" width="20" height="20" as="geometry"/>
                </mxCell>
                <mxCell id="41" style="edgeStyle=orthogonalEdgeStyle;html=1;endArrow=blockThin;endFill=1;fontSize=12;strokeWidth=1;rounded=1;" parent="1" source="30" target="40" edge="1">
                    <mxGeometry relative="1" as="geometry">
                        <Array as="points">
                            <mxPoint x="410" y="340"/>
                        </Array>
                    </mxGeometry>
                </mxCell>
                <mxCell id="42" value="Biomethane" style="edgeLabel;html=1;align=center;verticalAlign=middle;resizable=0;points=[];fontSize=12;" parent="41" vertex="1" connectable="0">
                    <mxGeometry x="-0.2034" relative="1" as="geometry">
                        <mxPoint x="50" as="offset"/>
                    </mxGeometry>
                </mxCell>
                <mxCell id="47" style="edgeStyle=orthogonalEdgeStyle;html=1;endArrow=blockThin;endFill=1;entryX=0;entryY=0.5;entryDx=0;entryDy=0;fontSize=12;strokeWidth=1;rounded=1;" parent="1" source="30" target="46" edge="1">
                    <mxGeometry relative="1" as="geometry">
                        <mxPoint x="520" y="288.64" as="targetPoint"/>
                    </mxGeometry>
                </mxCell>
                <mxCell id="48" value="Biofuels" style="edgeLabel;html=1;align=center;verticalAlign=middle;resizable=0;points=[];fontSize=12;" parent="47" vertex="1" connectable="0">
                    <mxGeometry x="0.183" y="-1" relative="1" as="geometry">
                        <mxPoint x="27" as="offset"/>
                    </mxGeometry>
                </mxCell>
                <mxCell id="30" value="" style="ellipse;whiteSpace=wrap;html=1;aspect=fixed;fontSize=12;" parent="1" vertex="1">
                    <mxGeometry x="400" y="303.64" width="20" height="20" as="geometry"/>
                </mxCell>
                <mxCell id="37" value="Heat for local&amp;nbsp;&lt;br style=&quot;font-size: 12px;&quot;&gt;Consumption" style="text;html=1;align=left;verticalAlign=middle;resizable=0;points=[];autosize=1;strokeColor=none;fillColor=none;fontSize=12;fontStyle=1" parent="1" vertex="1">
                    <mxGeometry x="585.29" y="368.64" width="100" height="40" as="geometry"/>
                </mxCell>
                <mxCell id="40" value="" style="ellipse;whiteSpace=wrap;html=1;aspect=fixed;fontSize=12;" parent="1" vertex="1">
                    <mxGeometry x="560.29" y="328.64" width="20" height="20" as="geometry"/>
                </mxCell>
                <mxCell id="43" value="Inject to grid" style="text;html=1;align=left;verticalAlign=middle;resizable=0;points=[];autosize=1;strokeColor=none;fillColor=none;fontSize=12;fontStyle=1" parent="1" vertex="1">
                    <mxGeometry x="585.29" y="323.64" width="100" height="30" as="geometry"/>
                </mxCell>
                <mxCell id="46" value="" style="ellipse;whiteSpace=wrap;html=1;aspect=fixed;fontSize=12;" parent="1" vertex="1">
                    <mxGeometry x="560.29" y="278.64" width="20" height="20" as="geometry"/>
                </mxCell>
                <mxCell id="49" value="Vehicle uses" style="text;html=1;align=left;verticalAlign=middle;resizable=0;points=[];autosize=1;strokeColor=none;fillColor=none;fontSize=12;fontStyle=1" parent="1" vertex="1">
                    <mxGeometry x="585.29" y="273.64" width="100" height="30" as="geometry"/>
                </mxCell>
                <mxCell id="64" style="edgeStyle=none;html=1;" edge="1" parent="1" source="60" target="61">
                    <mxGeometry relative="1" as="geometry"/>
                </mxCell>
                <mxCell id="60" value="" style="shape=mxgraph.signs.animals.stable;html=1;pointerEvents=1;fillColor=#000000;strokeColor=none;verticalLabelPosition=bottom;verticalAlign=top;align=center;" vertex="1" parent="1">
                    <mxGeometry x="86" y="610" width="98" height="98" as="geometry"/>
                </mxCell>
                <mxCell id="67" style="edgeStyle=none;html=1;" edge="1" parent="1" source="61" target="62">
                    <mxGeometry relative="1" as="geometry"/>
                </mxCell>
                <mxCell id="69" value="Biogas" style="edgeLabel;html=1;align=center;verticalAlign=middle;resizable=0;points=[];" vertex="1" connectable="0" parent="67">
                    <mxGeometry x="0.08" y="3" relative="1" as="geometry">
                        <mxPoint y="1" as="offset"/>
                    </mxGeometry>
                </mxCell>
                <mxCell id="61" value="Digesters" style="shape=cylinder3;whiteSpace=wrap;html=1;boundedLbl=1;backgroundOutline=1;size=15;" vertex="1" parent="1">
                    <mxGeometry x="330" y="623.5" width="100" height="71" as="geometry"/>
                </mxCell>
                <mxCell id="73" style="edgeStyle=none;html=1;" edge="1" parent="1" source="62" target="71">
                    <mxGeometry relative="1" as="geometry"/>
                </mxCell>
                <mxCell id="62" value="" style="shape=cylinder3;whiteSpace=wrap;html=1;boundedLbl=1;backgroundOutline=1;size=3;" vertex="1" parent="1">
                    <mxGeometry x="530" y="603" width="20.29" height="112" as="geometry"/>
                </mxCell>
                <mxCell id="63" value="Ammonia stripper" style="text;html=1;align=center;verticalAlign=middle;resizable=0;points=[];autosize=1;strokeColor=none;fillColor=none;" vertex="1" parent="1">
                    <mxGeometry x="480" y="565" width="120" height="30" as="geometry"/>
                </mxCell>
                <mxCell id="66" value="Direct transport of manure to digesters decrease the amount of GHG emissions compared to standing manure." style="text;html=1;strokeColor=none;fillColor=none;align=center;verticalAlign=middle;whiteSpace=wrap;rounded=0;" vertex="1" parent="1">
                    <mxGeometry x="200" y="540" width="150" height="116.5" as="geometry"/>
                </mxCell>
                <mxCell id="70" value="Further reduction of&amp;nbsp;&lt;br&gt;nitrogen in the digestate" style="text;html=1;align=center;verticalAlign=middle;resizable=0;points=[];autosize=1;strokeColor=none;fillColor=none;" vertex="1" parent="1">
                    <mxGeometry x="575.29" y="654.5" width="150" height="40" as="geometry"/>
                </mxCell>
                <mxCell id="77" style="edgeStyle=none;html=1;" edge="1" parent="1" source="71" target="60">
                    <mxGeometry relative="1" as="geometry"/>
                </mxCell>
                <mxCell id="71" value="" style="verticalLabelPosition=bottom;html=1;verticalAlign=top;align=center;shape=mxgraph.floorplan.plant;" vertex="1" parent="1">
                    <mxGeometry x="418" y="790" width="47" height="51" as="geometry"/>
                </mxCell>
                <mxCell id="75" value="Farm" style="text;html=1;strokeColor=none;fillColor=none;align=center;verticalAlign=middle;whiteSpace=wrap;rounded=0;" vertex="1" parent="1">
                    <mxGeometry x="414" y="850" width="60" height="30" as="geometry"/>
                </mxCell>
                <mxCell id="76" value="No need to use additional&lt;br&gt;fertilizers" style="text;html=1;align=center;verticalAlign=middle;resizable=0;points=[];autosize=1;strokeColor=none;fillColor=none;" vertex="1" parent="1">
                    <mxGeometry x="480" y="740" width="160" height="40" as="geometry"/>
                </mxCell>
                <mxCell id="78" value="No need to import more feeds&lt;br&gt;" style="text;html=1;align=center;verticalAlign=middle;resizable=0;points=[];autosize=1;strokeColor=none;fillColor=none;" vertex="1" parent="1">
                    <mxGeometry x="190" y="755" width="180" height="30" as="geometry"/>
                </mxCell>
            </root>
        </mxGraphModel>
    </diagram>
</mxfile>